<mxfile host="app.diagrams.net" agent="Mozilla/5.0 (Windows NT 10.0; Win64; x64) AppleWebKit/537.36 (KHTML, like Gecko) Chrome/120.0.0.0 Safari/537.36" version="24.8.6">
  <diagram name="第 1 页" id="u-25nE3y5qG4QSfuM3qK">
    <mxGraphModel dx="1050" dy="583" grid="1" gridSize="10" guides="1" tooltips="1" connect="1" arrows="1" fold="1" page="1" pageScale="1" pageWidth="827" pageHeight="1169" math="0" shadow="0">
      <root>
        <mxCell id="0" />
        <mxCell id="1" parent="0" />
        <mxCell id="1-l_3ulUl1jvpwUB6pcr-5" value="" style="rounded=0;whiteSpace=wrap;html=1;fillColor=#fff2cc;strokeColor=#d6b656;" vertex="1" parent="1">
          <mxGeometry x="90" y="60" width="710" height="600" as="geometry" />
        </mxCell>
        <mxCell id="1-l_3ulUl1jvpwUB6pcr-4" value="" style="rounded=0;whiteSpace=wrap;html=1;fillColor=#dae8fc;strokeColor=#6c8ebf;" vertex="1" parent="1">
          <mxGeometry x="130" y="190" width="650" height="450" as="geometry" />
        </mxCell>
        <mxCell id="1-l_3ulUl1jvpwUB6pcr-7" style="edgeStyle=orthogonalEdgeStyle;rounded=0;orthogonalLoop=1;jettySize=auto;html=1;" edge="1" parent="1" source="1-l_3ulUl1jvpwUB6pcr-1" target="1-l_3ulUl1jvpwUB6pcr-2">
          <mxGeometry relative="1" as="geometry" />
        </mxCell>
        <mxCell id="1-l_3ulUl1jvpwUB6pcr-8" value="Briger Network model" style="edgeLabel;html=1;align=center;verticalAlign=middle;resizable=0;points=[];labelBackgroundColor=none;" vertex="1" connectable="0" parent="1-l_3ulUl1jvpwUB6pcr-7">
          <mxGeometry x="0.4158" y="2" relative="1" as="geometry">
            <mxPoint x="-34" y="15" as="offset" />
          </mxGeometry>
        </mxCell>
        <mxCell id="1-l_3ulUl1jvpwUB6pcr-1" value="modem" style="sketch=0;pointerEvents=1;shadow=0;dashed=0;html=1;strokeColor=none;fillColor=#505050;labelPosition=center;verticalLabelPosition=bottom;verticalAlign=top;outlineConnect=0;align=center;shape=mxgraph.office.devices.modem;" vertex="1" parent="1">
          <mxGeometry x="190" y="70" width="54" height="34" as="geometry" />
        </mxCell>
        <mxCell id="1-l_3ulUl1jvpwUB6pcr-15" style="edgeStyle=orthogonalEdgeStyle;rounded=0;orthogonalLoop=1;jettySize=auto;html=1;entryX=0.316;entryY=0.064;entryDx=0;entryDy=0;entryPerimeter=0;" edge="1" parent="1" source="1-l_3ulUl1jvpwUB6pcr-2" target="1-l_3ulUl1jvpwUB6pcr-19">
          <mxGeometry relative="1" as="geometry">
            <mxPoint x="450" y="165" as="targetPoint" />
          </mxGeometry>
        </mxCell>
        <mxCell id="1-l_3ulUl1jvpwUB6pcr-2" value="router" style="image;html=1;image=img/lib/clip_art/networking/Wireless_Router_128x128.png;fontColor=default;labelBackgroundColor=none;" vertex="1" parent="1">
          <mxGeometry x="410" y="47" width="80" height="80" as="geometry" />
        </mxCell>
        <mxCell id="1-l_3ulUl1jvpwUB6pcr-3" value="IPv6" style="image;aspect=fixed;html=1;points=[];align=center;fontSize=12;image=img/lib/azure2/networking/Public_IP_Addresses.svg;labelBackgroundColor=none;" vertex="1" parent="1">
          <mxGeometry x="500" y="170" width="56.25" height="45" as="geometry" />
        </mxCell>
        <mxCell id="1-l_3ulUl1jvpwUB6pcr-6" value="" style="curved=1;endArrow=classic;html=1;rounded=0;" edge="1" parent="1" target="1-l_3ulUl1jvpwUB6pcr-1">
          <mxGeometry width="50" height="50" relative="1" as="geometry">
            <mxPoint x="10" y="20" as="sourcePoint" />
            <mxPoint x="90" y="20" as="targetPoint" />
            <Array as="points">
              <mxPoint x="50" y="87" />
              <mxPoint x="140" y="20" />
            </Array>
          </mxGeometry>
        </mxCell>
        <mxCell id="1-l_3ulUl1jvpwUB6pcr-22" value="" style="rounded=1;whiteSpace=wrap;html=1;arcSize=6;" vertex="1" parent="1">
          <mxGeometry x="580" y="240" width="185" height="380" as="geometry" />
        </mxCell>
        <mxCell id="1-l_3ulUl1jvpwUB6pcr-9" value="Debian Server&lt;div&gt;(Core)&lt;/div&gt;&lt;div&gt;10100-10999&lt;/div&gt;" style="shape=image;html=1;verticalAlign=top;verticalLabelPosition=bottom;labelBackgroundColor=none;imageAspect=0;aspect=fixed;image=https://cdn1.iconfinder.com/data/icons/KDE_Crystal_Diamond_2.5_Classical_Mod/128x128/apps/debian.png" vertex="1" parent="1">
          <mxGeometry x="652.5" y="250" width="40" height="40" as="geometry" />
        </mxCell>
        <mxCell id="1-l_3ulUl1jvpwUB6pcr-24" value="" style="rounded=1;whiteSpace=wrap;html=1;arcSize=6;" vertex="1" parent="1">
          <mxGeometry x="142" y="240" width="178" height="380" as="geometry" />
        </mxCell>
        <mxCell id="1-l_3ulUl1jvpwUB6pcr-10" value="Debian Server&lt;div&gt;(SIT/UAT)&lt;/div&gt;&lt;div&gt;20200-20999&lt;/div&gt;" style="shape=image;html=1;verticalAlign=top;verticalLabelPosition=bottom;labelBackgroundColor=none;imageAspect=0;aspect=fixed;image=https://cdn1.iconfinder.com/data/icons/KDE_Crystal_Diamond_2.5_Classical_Mod/128x128/apps/debian.png" vertex="1" parent="1">
          <mxGeometry x="211" y="250" width="40" height="40" as="geometry" />
        </mxCell>
        <mxCell id="1-l_3ulUl1jvpwUB6pcr-19" value="Win11" style="sketch=0;aspect=fixed;pointerEvents=1;shadow=0;dashed=0;html=1;strokeColor=none;labelPosition=center;verticalLabelPosition=bottom;verticalAlign=top;align=center;fillColor=#00188D;shape=mxgraph.mscae.enterprise.web_server" vertex="1" parent="1">
          <mxGeometry x="438" y="165" width="38" height="50" as="geometry" />
        </mxCell>
        <mxCell id="1-l_3ulUl1jvpwUB6pcr-23" value="" style="rounded=1;whiteSpace=wrap;html=1;arcSize=6;" vertex="1" parent="1">
          <mxGeometry x="360" y="240" width="190" height="380" as="geometry" />
        </mxCell>
        <mxCell id="1-l_3ulUl1jvpwUB6pcr-11" value="Debian Server&lt;div&gt;(PROD)&lt;/div&gt;&lt;div&gt;20100-20999&lt;/div&gt;" style="shape=image;html=1;verticalAlign=top;verticalLabelPosition=bottom;labelBackgroundColor=none;imageAspect=0;aspect=fixed;image=https://cdn1.iconfinder.com/data/icons/KDE_Crystal_Diamond_2.5_Classical_Mod/128x128/apps/debian.png" vertex="1" parent="1">
          <mxGeometry x="435" y="250" width="40" height="40" as="geometry" />
        </mxCell>
        <mxCell id="1-l_3ulUl1jvpwUB6pcr-25" value="Github" style="dashed=0;outlineConnect=0;html=1;align=center;labelPosition=center;verticalLabelPosition=bottom;verticalAlign=top;shape=mxgraph.weblogos.github" vertex="1" parent="1">
          <mxGeometry x="652.5" y="77" width="57.5" height="53" as="geometry" />
        </mxCell>
        <mxCell id="1-l_3ulUl1jvpwUB6pcr-26" value="" style="image;sketch=0;aspect=fixed;html=1;points=[];align=center;fontSize=12;image=img/lib/mscae/Docker.svg;" vertex="1" parent="1">
          <mxGeometry x="206" y="360" width="50" height="41" as="geometry" />
        </mxCell>
        <mxCell id="1-l_3ulUl1jvpwUB6pcr-27" value="" style="image;sketch=0;aspect=fixed;html=1;points=[];align=center;fontSize=12;image=img/lib/mscae/Docker.svg;" vertex="1" parent="1">
          <mxGeometry x="430" y="360" width="50" height="41" as="geometry" />
        </mxCell>
        <mxCell id="1-l_3ulUl1jvpwUB6pcr-28" value="" style="image;sketch=0;aspect=fixed;html=1;points=[];align=center;fontSize=12;image=img/lib/mscae/Docker.svg;" vertex="1" parent="1">
          <mxGeometry x="647.5" y="360" width="50" height="41" as="geometry" />
        </mxCell>
        <mxCell id="1-l_3ulUl1jvpwUB6pcr-29" value="" style="image;aspect=fixed;html=1;points=[];align=center;fontSize=12;image=img/lib/azure2/databases/Azure_Database_MySQL_Server.svg;" vertex="1" parent="1">
          <mxGeometry x="648.5" y="430" width="48" height="64" as="geometry" />
        </mxCell>
      </root>
    </mxGraphModel>
  </diagram>
</mxfile>
